<svg width="129" height="138" viewBox="0 0 129 138" fill="none" xmlns="http://www.w3.org/2000/svg">
<rect x="2" width="10" height="88" fill="#DAC0A3"/>
<rect x="56" width="12" height="54" transform="rotate(90 56 0)" fill="#DAC0A3"/>
<rect x="56" y="80" width="12" height="54" transform="rotate(90 56 80)" fill="#DAC0A3"/>
<rect x="94" y="80" width="12" height="11" transform="rotate(90 94 80)" fill="#102C57"/>
<path d="M128 0L123.5 12H115V0L128 0Z" fill="#102C57"/>
<rect width="12" height="93.4266" transform="matrix(-0.939692 -0.34202 -0.34202 0.939692 126.23 4.26221)" fill="#102C57"/>
<path d="M12.8466 65.0909C13.4006 60.4129 15.6473 56.7812 19.5866 54.196C23.526 51.6108 28.358 50.3182 34.0824 50.3182C38.268 50.3182 41.9304 50.9953 45.0696 52.3494C48.178 53.7036 50.6094 55.5656 52.3636 57.9354C54.0871 60.3052 54.9489 62.9981 54.9489 66.0142C54.9489 68.5379 54.3487 70.7076 53.1484 72.5234C51.9174 74.3085 50.3478 75.8011 48.4396 77.0014C46.5315 78.1709 44.531 79.1404 42.4382 79.9098C40.3454 80.6484 38.4219 81.2486 36.6676 81.7102L27.0653 84.2955C24.6032 84.9418 21.8641 85.8343 18.848 86.973C15.8011 88.1117 12.8928 89.666 10.1229 91.6357C7.32221 93.5746 5.01397 96.0675 3.19815 99.1143C1.38233 102.161 0.474428 105.901 0.474428 110.332C0.474428 115.441 1.81321 120.058 4.49076 124.182C7.13755 128.306 11.0154 131.584 16.1243 134.015C21.2024 136.446 27.3731 137.662 34.6364 137.662C41.4072 137.662 47.2701 136.569 52.2251 134.384C57.1494 132.199 61.0272 129.152 63.8587 125.244C66.6593 121.335 68.2443 116.795 68.6136 111.625H56.7955C56.4877 115.195 55.2874 118.15 53.1946 120.489C51.071 122.797 48.3935 124.52 45.1619 125.659C41.8996 126.767 38.3911 127.321 34.6364 127.321C30.2661 127.321 26.3421 126.613 22.8643 125.197C19.3866 123.751 16.6321 121.75 14.6008 119.196C12.5696 116.611 11.554 113.595 11.554 110.148C11.554 107.009 12.4311 104.454 14.1854 102.484C15.9396 100.515 18.2479 98.9143 21.1101 97.6832C23.9723 96.4522 27.0653 95.375 30.3892 94.4517L42.0227 91.1278C49.4091 89.0043 55.2566 85.9728 59.5653 82.0334C63.8741 78.094 66.0284 72.9389 66.0284 66.5682C66.0284 61.2746 64.5973 56.6581 61.7351 52.7188C58.8421 48.7486 54.9643 45.6709 50.1016 43.4858C45.2081 41.2699 39.7453 40.1619 33.7131 40.1619C27.6193 40.1619 22.2027 41.2545 17.4631 43.4396C12.7235 45.594 8.96875 48.5485 6.19886 52.3033C3.3982 56.058 1.92092 60.3205 1.76704 65.0909H12.8466Z" fill="#102C57"/>
<path d="M95.375 137.293C102.33 137.293 108.255 135.4 113.148 131.614C118.042 127.798 121.781 122.274 124.366 115.041C126.952 107.778 128.244 99.0066 128.244 88.7273C128.244 78.5095 126.952 69.7843 124.366 62.5518C121.75 55.2886 117.996 49.7488 113.102 45.9325C108.178 42.0855 102.269 40.1619 95.375 40.1619C88.4811 40.1619 82.5874 42.0855 77.6939 45.9325C72.7696 49.7488 69.0149 55.2886 66.4297 62.5518C63.8137 69.7843 62.5057 78.5095 62.5057 88.7273C62.5057 99.0066 63.7983 107.778 66.3835 115.041C68.9688 122.274 72.7081 127.798 77.6016 131.614C82.495 135.4 88.4195 137.293 95.375 137.293ZM95.375 127.136C88.4811 127.136 83.1259 123.812 79.3097 117.165C75.4934 110.517 73.5852 101.038 73.5852 88.7273C73.5852 80.5407 74.4624 73.5698 76.2166 67.8146C77.9401 62.0594 80.433 57.6738 83.6953 54.6577C86.9268 51.6416 90.8201 50.1335 95.375 50.1335C102.207 50.1335 107.547 53.5035 111.394 60.2436C115.241 66.9529 117.165 76.4474 117.165 88.7273C117.165 96.9138 116.303 103.869 114.58 109.594C112.856 115.318 110.379 119.673 107.147 122.658C103.885 125.644 99.9607 127.136 95.375 127.136Z" fill="#DAC0A3"/>
<rect x="76" y="40" width="12" height="54" transform="rotate(90 76 40)" fill="#DAC0A3"/>
<path d="M93.7288 87.9504L82.4525 92.0547L64 40.0001L76.2763 40.0001L93.7288 87.9504Z" fill="#102C57"/>
</svg>
